<svg version="1.1" xmlns="http://www.w3.org/2000/svg" xmlns:xlink="http://www.w3.org/1999/xlink" width="724" height="876"><defs/><g><g transform="translate(-46,2) scale(1,1)"><path fill="none" stroke="#000000" d="M 56 8 L 760 8 L 760 864 L 56 864 L 56 8" stroke-miterlimit="10"/></g><g transform="translate(-46,2) scale(1,1)"><path fill="#ffffff" stroke="none" d="M 56 8 L 56 30 L 312.626953125 30 L 323.626953125 19 L 323.626953125 8 L 56 8"/></g><g transform="translate(-46,2) scale(1,1)"><path fill="none" stroke="#000000" d="M 56 8 L 56 30 L 312.626953125 30 L 323.626953125 19 L 323.626953125 8 L 56 8 L 56 8" stroke-miterlimit="10"/></g><g transform="translate(-46,2) scale(1,1)"><g><path fill="none" stroke="none"/><text fill="#000000" stroke="none" font-family="Arial" font-size="13px" font-style="normal" font-weight="normal" text-decoration="none" x="126.97900390625" y="25.5">Communication entre Solutions</text></g></g><g transform="translate(-46,2) scale(1,1)"><g><path fill="none" stroke="none"/><text fill="#000000" stroke="none" font-family="Arial" font-size="13px" font-style="normal" font-weight="bold" text-decoration="none" x="61" y="25.5">interaction</text></g></g><g transform="translate(-46,2) scale(1,1)"><rect fill="#C0C0C0" stroke="none" x="311" y="47" width="107.8798828125" height="39" opacity="0.2"/></g><g transform="translate(-46,2) scale(1,1)"><rect fill="#ffffff" stroke="none" x="304" y="40" width="107.8798828125" height="39"/></g><g transform="translate(-46,2) scale(1,1)"><path fill="none" stroke="#000000" d="M 304 40 L 411.8798828125 40 L 411.8798828125 79 L 304 79 L 304 40 Z Z" stroke-miterlimit="10"/></g><g transform="translate(-46,2) scale(1,1)"><g><path fill="none" stroke="none"/><text fill="#000000" stroke="none" font-family="Arial" font-size="13px" font-style="normal" font-weight="bold" text-decoration="none" x="317.83544921875" y="59.5">race manager</text></g></g><g transform="translate(-46,2) scale(1,1)"><path fill="none" stroke="#000000" d="M 358.5 80 L 358.5 760" stroke-miterlimit="10" stroke-dasharray="3"/></g><g transform="translate(-46,2) scale(1,1)"><rect fill="#C0C0C0" stroke="none" x="543" y="47" width="96" height="39" opacity="0.2"/></g><g transform="translate(-46,2) scale(1,1)"><rect fill="#ffffff" stroke="none" x="536" y="40" width="96" height="39"/></g><g transform="translate(-46,2) scale(1,1)"><path fill="none" stroke="#000000" d="M 536 40 L 632 40 L 632 79 L 536 79 L 536 40 Z Z" stroke-miterlimit="10"/></g><g transform="translate(-46,2) scale(1,1)"><g><path fill="none" stroke="none"/><text fill="#000000" stroke="none" font-family="Arial" font-size="13px" font-style="normal" font-weight="bold" text-decoration="none" x="548.595947265625" y="59.5">simulateur 1</text></g></g><g transform="translate(-46,2) scale(1,1)"><path fill="none" stroke="#000000" d="M 585.5 80 L 585.5 760" stroke-miterlimit="10" stroke-dasharray="3"/></g><g transform="translate(-46,2) scale(1,1)"><path fill="none" stroke="#000000" d="M 585 144 L 364 144" stroke-miterlimit="10"/></g><g transform="translate(-46,2) scale(1,1)"><path fill="#000000" stroke="none" d="M 374.16267485762415 139.790482243984 L 364 144 L 374.16267485762415 148.209517756016"/></g><g transform="translate(-46,2) scale(1,1)"><path fill="none" stroke="#000000" d="M 374.16267485762415 139.790482243984 L 364 144 L 374.16267485762415 148.209517756016 L 374.16267485762415 139.790482243984" stroke-miterlimit="10"/></g><g transform="translate(-46,2) scale(1,1)"><g><path fill="none" stroke="none"/><text fill="#000000" stroke="none" font-family="Arial" font-size="13px" font-style="normal" font-weight="normal" text-decoration="none" x="430.5" y="138.5">1 : Connexion</text></g></g><g transform="translate(-46,2) scale(1,1)"><rect fill="#ffffff" stroke="none" x="351" y="144" width="13" height="43"/></g><g transform="translate(-46,2) scale(1,1)"><path fill="none" stroke="#000000" d="M 351 144 L 364 144 L 364 187 L 351 187 L 351 144 Z Z" stroke-miterlimit="10"/></g><g transform="translate(-46,2) scale(1,1)"><path fill="none" stroke="#000000" d="M 358 224 L 578 224" stroke-miterlimit="10"/></g><g transform="translate(-46,2) scale(1,1)"><path fill="#000000" stroke="none" d="M 567.8373251423759 228.209517756016 L 578 224 L 567.8373251423758 219.790482243984"/></g><g transform="translate(-46,2) scale(1,1)"><path fill="none" stroke="#000000" d="M 567.8373251423759 228.209517756016 L 578 224 L 567.8373251423758 219.790482243984 L 567.8373251423759 228.209517756016" stroke-miterlimit="10"/></g><g transform="translate(-46,2) scale(1,1)"><g><path fill="none" stroke="none"/><text fill="#000000" stroke="none" font-family="Arial" font-size="13px" font-style="normal" font-weight="normal" text-decoration="none" x="427.575927734375" y="220.5">2 : info course</text></g></g><g transform="translate(-46,2) scale(1,1)"><rect fill="#ffffff" stroke="none" x="578" y="224" width="13" height="28"/></g><g transform="translate(-46,2) scale(1,1)"><path fill="none" stroke="#000000" d="M 578 224 L 591 224 L 591 252 L 578 252 L 578 224 Z Z" stroke-miterlimit="10"/></g><g transform="translate(-46,2) scale(1,1)"><path fill="none" stroke="#000000" d="M 585 280 L 364 280" stroke-miterlimit="10"/></g><g transform="translate(-46,2) scale(1,1)"><path fill="#000000" stroke="none" d="M 374.16267485762415 275.790482243984 L 364 280 L 374.16267485762415 284.209517756016"/></g><g transform="translate(-46,2) scale(1,1)"><path fill="none" stroke="#000000" d="M 374.16267485762415 275.790482243984 L 364 280 L 374.16267485762415 284.209517756016 L 374.16267485762415 275.790482243984" stroke-miterlimit="10"/></g><g transform="translate(-46,2) scale(1,1)"><g><path fill="none" stroke="none"/><text fill="#000000" stroke="none" font-family="Arial" font-size="13px" font-style="normal" font-weight="normal" text-decoration="none" x="425.5" y="296.5">3 : Choix bâteau</text></g></g><g transform="translate(-46,2) scale(1,1)"><rect fill="#ffffff" stroke="none" x="351" y="280" width="13" height="28"/></g><g transform="translate(-46,2) scale(1,1)"><path fill="none" stroke="#000000" d="M 351 280 L 364 280 L 364 308 L 351 308 L 351 280 Z Z" stroke-miterlimit="10"/></g><g transform="translate(-46,2) scale(1,1)"><path fill="none" stroke="#000000" d="M 358 432 L 578 432" stroke-miterlimit="10"/></g><g transform="translate(-46,2) scale(1,1)"><path fill="#000000" stroke="none" d="M 567.8373251423759 436.209517756016 L 578 432 L 567.8373251423758 427.790482243984"/></g><g transform="translate(-46,2) scale(1,1)"><path fill="none" stroke="#000000" d="M 567.8373251423759 436.209517756016 L 578 432 L 567.8373251423758 427.790482243984 L 567.8373251423759 436.209517756016" stroke-miterlimit="10"/></g><g transform="translate(-46,2) scale(1,1)"><g><path fill="none" stroke="none"/><text fill="#000000" stroke="none" font-family="Arial" font-size="13px" font-style="normal" font-weight="normal" text-decoration="none" x="402.5" y="419.5">4 : info environnement</text></g></g><g transform="translate(-46,2) scale(1,1)"><rect fill="#ffffff" stroke="none" x="578" y="432" width="13" height="48"/></g><g transform="translate(-46,2) scale(1,1)"><path fill="none" stroke="#000000" d="M 578 432 L 591 432 L 591 480 L 578 480 L 578 432 Z Z" stroke-miterlimit="10"/></g><g transform="translate(-46,2) scale(1,1)"><path fill="none" stroke="#000000" d="M 585 512 L 364 512" stroke-miterlimit="10"/></g><g transform="translate(-46,2) scale(1,1)"><path fill="none" stroke="#000000" d="M 374.16267485762415 507.790482243984 L 364 512 L 374.16267485762415 516.209517756016" stroke-miterlimit="10"/></g><g transform="translate(-46,2) scale(1,1)"><g><path fill="none" stroke="none"/><text fill="#000000" stroke="none" font-family="Arial" font-size="13px" font-style="normal" font-weight="normal" text-decoration="none" x="429.5" y="528.5">5 : info position</text></g></g><g transform="translate(-46,2) scale(1,1)"><rect fill="#ffffff" stroke="none" x="351" y="512" width="13" height="32"/></g><g transform="translate(-46,2) scale(1,1)"><path fill="none" stroke="#000000" d="M 351 512 L 364 512 L 364 544 L 351 544 L 351 512 Z Z" stroke-miterlimit="10"/></g><g transform="translate(-46,2) scale(1,1)"><path fill="none" stroke="#000000" d="M 104 328 L 656 328 L 656 584 L 104 584 L 104 328" stroke-miterlimit="10"/></g><g transform="translate(-46,2) scale(1,1)"><path fill="#ffffff" stroke="none" d="M 104 328 L 104 350 L 284.7724609375 350 L 295.7724609375 339 L 295.7724609375 328 L 104 328"/></g><g transform="translate(-46,2) scale(1,1)"><path fill="none" stroke="#000000" d="M 104 328 L 104 350 L 284.7724609375 350 L 295.7724609375 339 L 295.7724609375 328 L 104 328 L 104 328" stroke-miterlimit="10"/></g><g transform="translate(-46,2) scale(1,1)"><g><path fill="none" stroke="none"/><text fill="#000000" stroke="none" font-family="Arial" font-size="13px" font-style="normal" font-weight="normal" text-decoration="none" x="139.578125" y="345.5">Boucle Dialogue Course</text></g></g><g transform="translate(-46,2) scale(1,1)"><g><path fill="none" stroke="none"/><text fill="#000000" stroke="none" font-family="Arial" font-size="13px" font-style="normal" font-weight="bold" text-decoration="none" x="109" y="345.5">loop</text></g></g><g transform="translate(-46,2) scale(1,1)"><g><path fill="none" stroke="none"/><text fill="#000000" stroke="none" font-family="Arial" font-size="13px" font-style="normal" font-weight="normal" text-decoration="none" x="123.5" y="378.5">[courseNonTerminée]</text></g></g><g transform="translate(-46,2) scale(1,1)"><path fill="none" stroke="#000000" d="M 104 394 L 656 394" stroke-miterlimit="10" stroke-dasharray="10,3"/></g></g></svg>